<svg xmlns="http://www.w3.org/2000/svg" xmlns:xlink="http://www.w3.org/1999/xlink" width="330" height="525" viewBox="0 0 330 525">
    <defs>
        <path id="a" d="M0 .8h164.8V525H0z"/>
    </defs>
    <g fill="none" fill-rule="evenodd">
        <path fill="#E0E0E0" d="M294.1 469.3H35.4c-19.2 0-35-15.7-35-34.8v-346c0-19.3 15.8-35 35-35h258.7c19.2 0 35 15.7 35 35v346c0 19-15.8 34.8-35 34.8"/>
        <path fill="#757575" d="M329.1 98.1H164.8v-1.5h164.3v1.5zM164.8 423.5h164.3V422H164.8v1.5zm0-46.5h164.3v-1.5H164.8v1.5zm164.3-46.5H164.8v-1.2h164.3v1.3-.1zM164.8 284h164.3v-1.4H164.8v1.4zm164.3-46.5H164.8v-1.2h164.3v1.4-.2zm0-46.3H164.8v-1.6h164.3v1.6zm-164.3-46.5h164.3v-1.4H164.8v1.4z"/>
        <path fill="#2196F3" d="M26.725 417.01c-3.2 0-5.8-2.6-5.8-5.8 0-3.3 2.6-6 5.8-6 13.3 0 26.2-27.6 38.7-54.5 18.3-39.4 39-84 75.7-84 37.5 0 46.6 43.2 54 78 5.3 25.3 10.3 49.2 23.2 49.2 12.8 0 18.4-33.7 23.4-63.4 7.6-45.4 16.2-97 53.3-97 3.3 0 6 2.7 6 6 0 3-2.7 5.7-6 5.7-27.2 0-35 46.3-41.7 87.2-6.6 39.3-12.2 73.2-35 73.2-22.2 0-28.2-28.5-34.6-58.5-7-34-14.4-69-42.5-69-29.3.2-48.3 41.2-65.3 77.6-15.3 33-28.5 61.3-49.2 61.3"/>
        <path fill="#2196F3" d="M305.3 236.9c0 8-6.5 14.6-14.5 14.6s-14.6-6.5-14.6-14.6c0-8 6.5-14.5 14.6-14.5 8 0 14.5 6.6 14.5 14.6"/>
        <path fill="#212121" d="M282.657 171.3v20.6l-33.36-16.6-32.96 16.6v-87l-51.536-51.2v415.6h129.342c19.176 0 34.957-15.7 34.957-34.8V217.7l-46.643-46.4h.2z" opacity=".1"/>
        <path fill="#9C27B0" d="M282.6 191.9l-33.4-16.6-33 16.6V51.3h66.2v140.6z"/>
        <path fill="#212121" d="M216.2 90.8v101l33-16.5 33.3 16.6v-35l-66.4-66z" opacity=".1"/>
        <g transform="translate(0 -.8)">
            <mask id="b" fill="#fff">
                <use xlink:href="#a"/>
            </mask>
            <path fill="#673AB7" d="M161.5 13.4c-2-4-5-7.2-8.6-9.3A24.11 24.11 0 0 0 140.7.8c-4.5 0-9.3 1-14.3 3.2L23.6 48.9c-3.5 1.5-6.7 3.7-9.5 6.6-2.8 2.8-5.4 6-7.5 9.8-2 3.8-3.7 7.6-5 11.8-1 4-1.6 8.3-1.6 12.4v347c0 4 .6 8.2 1.8 12.3 1 4 2.8 8 5 11.8 2 3.6 4.5 7 7.3 9.8 2.8 2.8 6 5 9.4 6.6l.1.04v.06l102.7 44.7c5 2.2 9.7 3.2 14.2 3.2 4.6 0 8.8-1.2 12.3-3.3 3.7-2.2 6.7-5.3 8.7-9.4 2-4 3.3-9 3.3-14.6V28.1c0-5.7-1.2-10.6-3.3-14.7" mask="url(#b)"/>
        </g>
        <path fill="#512DA8" d="M33.6 480.653V43.733l-10 4.367c-3.5 1.5-6.7 3.7-9.5 6.6-2.8 2.8-5.4 6-7.5 9.8-2 3.8-3.7 7.6-5 11.8-1 4-1.6 8.3-1.6 12.4v347c0 4 .6 8.2 1.8 12.3 1 4 2.8 8 5 11.8 2 3.6 4.5 7 7.3 9.8 2.8 2.8 6 5 9.4 6.6l.1.04v.06l10 4.353z"/>
    </g>
</svg>
